<?xml version="1.0" encoding="UTF-8"?><svg id="Layer_1" xmlns="http://www.w3.org/2000/svg" xmlns:xlink="http://www.w3.org/1999/xlink" viewBox="0 0 169 147"><defs><style>.cls-1{fill:url(#linear-gradient-2);}.cls-2{fill:url(#linear-gradient);}</style><linearGradient id="linear-gradient" x1="37.27" y1="165.53" x2="106.84" y2="45.03" gradientUnits="userSpaceOnUse"><stop offset=".13" stop-color="#db1935"/><stop offset=".64" stop-color="#9d081a"/><stop offset=".95" stop-color="#7d000d"/></linearGradient><linearGradient id="linear-gradient-2" x1="125.4" y1="80.3" x2="169.81" y2="3.37" gradientUnits="userSpaceOnUse"><stop offset="0" stop-color="#db1935"/><stop offset=".59" stop-color="#9d081a"/><stop offset=".95" stop-color="#7d000d"/></linearGradient></defs><path class="cls-2" d="M168.61,110.7v30.26c0,3.24-2.63,5.87-5.87,5.87H6.47c-3.24,0-5.87-2.63-5.87-5.87V26.12c0-3.24,2.63-5.87,5.87-5.87h30.26c3.24,0,5.87,2.63,5.87,5.87v72.85c0,3.24,2.63,5.87,5.87,5.87h9.26c3.24,0,5.87-2.63,5.87-5.87v-51.26c0-3.24,2.63-5.87,5.87-5.87h30.26c3.24,0,5.87,2.63,5.87,5.87v51.26c0,3.24,2.63,5.87,5.87,5.87h51.26c3.24,0,5.87,2.63,5.87,5.87Z"/><rect class="cls-1" x="126.61" y="-.17" width="42" height="84" rx="6.72" ry="6.72"/></svg>