<?xml version="1.0" encoding="UTF-8"?><svg id="Layer_1" xmlns="http://www.w3.org/2000/svg" xmlns:xlink="http://www.w3.org/1999/xlink" viewBox="0 0 460 250"><defs><style>.cls-1{fill:url(#linear-gradient-2);}.cls-2{fill:url(#linear-gradient);}.cls-3{fill:#2a2627;}</style><linearGradient id="linear-gradient" x1="46.91" y1="203.95" x2="116.45" y2="83.5" gradientUnits="userSpaceOnUse"><stop offset=".13" stop-color="#d91a35"/><stop offset=".64" stop-color="#9d091a"/><stop offset=".95" stop-color="#7d010c"/></linearGradient><linearGradient id="linear-gradient-2" x1="135.02" y1="118.75" x2="179.44" y2="41.82" gradientUnits="userSpaceOnUse"><stop offset="0" stop-color="#d91a35"/><stop offset=".58" stop-color="#9d091a"/><stop offset=".95" stop-color="#7d010c"/></linearGradient></defs><path class="cls-2" d="M178.23,149.23v30.11c0,3.28-2.66,5.94-5.94,5.94H16.17c-3.28,0-5.94-2.66-5.94-5.94v-114.69c0-3.28,2.66-5.94,5.94-5.94h30.11c3.28,0,5.94,2.66,5.94,5.94v72.69c0,3.28,2.66,5.94,5.94,5.94h9.11c3.28,0,5.94-2.66,5.94-5.94v-51.11c0-3.28,2.66-5.94,5.94-5.94h30.11c3.28,0,5.94,2.66,5.94,5.94v51.11c0,3.28,2.66,5.94,5.94,5.94h51.11c3.28,0,5.94,2.66,5.94,5.94Z"/><rect class="cls-1" x="136.23" y="38.28" width="42" height="84" rx="6.72" ry="6.72"/><path class="cls-3" d="M262.8,149.31c0,19.93-16.37,36.08-36.57,36.08s-36.57-16.15-36.57-36.08,16.37-36.09,36.57-36.09,36.58,16.16,36.57,36.09ZM236.48,149.31c0-5.58-4.59-10.11-10.24-10.11s-10.24,4.53-10.24,10.11,4.59,10.11,10.24,10.11,10.24-4.53,10.24-10.11Z"/><path class="cls-3" d="M366.06,103.84c-9.37.63-15.97,6.22-15.97,11.88h12.62c1.09,0,1.97.87,1.97,1.94v19.84c0,1.07-.88,1.94-1.97,1.94h-12.37v44.67c0,1.07-.88,1.94-1.97,1.94h-24.34c-1.09,0-1.96-.87-1.96-1.94v-44.66h-12.37c-1.09,0-1.96-.87-1.96-1.94v-19.85c0-1.07.88-1.94,1.96-1.94h12.37c0-19.27,10.36-34.97,43.77-35.56,1.09-.02,2,.86,2,1.94v19.82c0,.99-.77,1.85-1.78,1.92Z"/><path class="cls-3" d="M422.77,116.71c0-1.08.9-1.97,1.98-1.97h25.67c1.11,0,2.01.91,2,2-.87,92.9-62.16,100.64-74.31,101.26-1.14.06-2.07-.84-2.07-1.97v-22.57c0-.9.61-1.68,1.5-1.9,5.66-1.4,25.42-6.87,25.42-14.87,0,0-29.35,4.17-29.93-59.95,0-1.09.89-2,2-2h25.68c1.1,0,1.97.89,1.98,1.97.3,39.08,9.74,37.89,10.04,37.89s9.75,1.19,10.06-37.89Z"/><rect class="cls-3" x="270.98" y="80.23" width="28.83" height="105.93" rx="4.14" ry="4.14"/></svg>
